#!OML:ASF F:\VICON\USERDATA\INSTALL\rory3\rory3.ASF
:FULLY-SPECIFIED
:DEGREES
77
root 0.4260294240184665 17.633927280988036 24.159651221314775 -1.3718007176999376 0.49802552768418185 1.9221099292201944
lfemur 11.42249381152452 -4.071137125465091 -26.78752361710835
ltibia 17.736168597990755
lfoot -15.556180101931826 -1.2894650355868544
ltoes -6.531024119030405
rfemur -27.255659782112744 6.604603059988648 17.430646414289956
rtibia 18.30363789371964
rfoot -10.355862182454013 -11.087622345411226
rtoes -0.3165153374498044
lowerback 9.701585289295073 -1.1079258128309926 -3.654752937377446
upperback 0.7437925522818876 -1.7583982248861587 1.2709544699684643
thorax -4.496320681958434 -0.7860693322601682 3.758483455356255
lowerneck -16.284683576093745 -2.5601309796413405 -2.576670752123691
upperneck 20.146131270065354 -3.120030184068988 1.3745646716293536
head 9.068578410840342 -1.5351719934483303 0.4380097838433446
lclavicle -1.387428045747725e-15 -1.84369859994583e-15
lhumerus -23.33528098875567 -2.783972315683945 81.29547576670163
lradius 29.784667902862736
lwrist 6.545197843121846
lhand -28.563019718201556 22.89395049336065
lfingers 7.125019999999999
lthumb -1.6961846607357052 53.2639686125731
rclavicle -1.3874280458894015e-15 -1.843698600076811e-15
rhumerus -35.955322282538745 -28.11643034070477 -72.90399955842798
rradius 22.07027497714799
rwrist 5.1461031822478205
rhand -18.224021241334892 22.777437844375743
rfingers 7.125019999999999
rthumb 7.70326221877619 -7.53833812613582
78
root 0.3365664993678501 17.580026776138173 25.116055623642417 -1.687683679923611 0.40252102392780786 1.6302635645678207
lfemur 12.821053708529112 -5.536704455082464 -26.327102133320764
ltibia 20.203964718810454
lfoot -13.933634286527827 -2.748802901888439
ltoes -9.611877124054661
rfemur -28.416660138510846 4.58067870792072 19.421478539664157
rtibia 24.149947587865462
rfoot -9.224831479718384 -9.311968328024847
rtoes -1.6615068992279838
lowerback 9.625248170444682 -1.088403666215746 -3.6149902438596087
upperback 0.75559083694731 -1.729128116315497 1.417220974429096
thorax -4.446319600241889 -0.7802642647522429 3.868493661980322
lowerneck -16.320811069489295 -2.4384476069606364 -2.534327746975124
upperneck 20.379586017169252 -2.8938423426259656 1.1895595613604772
head 9.17051601097838 -1.4650813821694568 0.39509160985341635
lclavicle -1.3874280457482266e-15 -1.8436985999480746e-15
lhumerus -23.533719441448532 -2.710905126423847 81.40614609584408
lradius 30.145300651270155
lwrist 6.473704453890219
lhand -29.383628035316043 22.16438449823779
lfingers 7.125019999999999
lthumb -2.5190022515825405 52.451491843711146
rclavicle -1.3874280458892321e-15 -1.843698600078518e-15
rhumerus -36.0948006776452 -28.45826319286654 -72.87941471247164
rradius 21.58307311275237
rwrist 6.089047297477962
rhand -18.209352927512263 22.724980931957873
rfingers 7.125019999999999
rthumb 7.7689584418815345 -7.526045146484374
79
root 0.2489521147949455 17.514108066590904 26.09428952673327 -2.1952423265412593 0.0983164037168609 0.9701410114126685
lfemur 13.177534941760092 -6.789791439906312 -25.58905985008834
ltibia 24.132657395888586
lfoot -12.094508905588562 -3.9306027823225227
ltoes -14.281197033250109
rfemur -28.56658115795193 4.367627105072508 21.03247129631246
rtibia 29.33105240587921
rfoot -6.954604435890348 -7.43604405200804
rtoes -1.071520985716094
lowerback 9.384090670582157 -1.0268010096516993 -3.0498687663750497
upperback 0.7905630850255737 -1.5732011525731018 1.6250157992993244
thorax -4.331875895981174 -0.7129180412918759 3.713215019495557
lowerneck -16.339762145987834 -2.3096953593853558 -2.464641828154643
upperneck 20.68094485917945 -2.6716996619771 0.984405806501853
head 9.295887296529509 -1.3984427826782393 0.3391707767089351
lclavicle -1.387428045749081e-15 -1.8436985999505836e-15
lhumerus -24.12766617322019 -2.099799836205203 81.46884712689364
lradius 30.035152577216387
lwrist 6.1888451203874695
lhand -29.42268982991681 22.535496729773534
lfingers 7.125019999999999
lthumb -2.570933355273373 52.70985063737079
rclavicle -1.3874280458911423e-15 -1.8436986000821482e-15
rhumerus -35.9695616313704 -28.22595678976791 -73.26704809914881
rradius 21.149646165108244
rwrist 6.7701965462975275
rhand -18.16142844379068 22.638386445910246
rfingers 7.125019999999999
rthumb 7.883163681231234 -7.49998996088026
80
root 0.16100683892444267 17.61909540222603 27.328018887007396 -2.7543049595348306 0.133182068123453 -0.513763311201934
lfemur 11.477715990850415 -7.0163774644247665 -23.732494505629457
ltibia 30.593488625091098
lfoot -7.288177733010752 -6.321384046190386
ltoes -17.661181327013935
rfemur -27.277358972614078 4.624237844621659 23.19508699412027
rtibia 31.708413378580694
rfoot -5.908533416571748 -5.110474004326504
rtoes 2.3349863907457378
lowerback 9.243160966137038 -1.0250620344988899 -1.8092014977617468
upperback 0.716627443233539 -1.4169964442629417 1.9924958004566682
thorax -4.422918095719252 -0.6660991268697141 3.3653276655426323
lowerneck -16.264186364256002 -2.2163163598323288 -2.3771684542034066
upperneck 20.959642115062728 -2.510149316052366 0.8175579620062822
head 9.407995877321275 -1.3492472398260358 0.28970542308002617
lclavicle -1.3874280457537232e-15 -1.8436985999569383e-15
lhumerus -25.09764337336925 -1.2205539305577808 81.58577876550233
lradius 29.9133079003797
lwrist 5.946847468554329
lhand -29.70345181636999 21.824822414622684
lfingers 7.125019999999999
lthumb -2.8193283882266487 52.15934112131164
rclavicle -1.3874280458886736e-15 -1.8436986000819053e-15
rhumerus -35.71789909999922 -27.690451593384363 -73.75887183407556
rradius 20.79397290366039
rwrist 7.406487172302345
rhand -18.171940294193664 22.439688627308467
rfingers 7.125019999999999
rthumb 7.947483822862885 -7.542147933450406
81
root 0.10079206174949024 17.648748357909234 28.257060239906025 -3.2801394870117333 -0.09323602179533985 -1.530365925684367
lfemur 7.945830286305027 -5.642824510775 -21.644356556002712
ltibia 39.127894518339204
lfoot 0.3912477775002392 -10.009912872874938
ltoes -16.361400824378247
rfemur -25.4338570254252 4.619983710321709 25.12909405941601
rtibia 33.8250393848888
rfoot -6.2717003907286815 -3.611467568636
rtoes 6.446033328960173
lowerback 8.971695534698961 -0.8880140046990455 -0.5726874065724046
upperback 0.7220023485954739 -1.0966311703013276 2.231676149075097
thorax -4.343991556512167 -0.5088768442100691 2.706300549351046
lowerneck -16.147404659246384 -2.1856912086789277 -2.2754879253849554
upperneck 20.99185532830895 -2.4581001406342375 0.6572106778874718
head 9.422622194160484 -1.3371774414972475 0.22719836613326055
lclavicle -1.3874280457601196e-15 -1.8436985999645863e-15
lhumerus -26.18247621760759 -0.26679724559456997 81.74992652504365
lradius 29.35532994795573
lwrist 5.602371401442214
lhand -29.52943425303489 21.972760768414894
lfingers 7.125019999999999
lthumb -2.707300581233076 52.22838336867328
rclavicle -1.3874280458931303e-15 -1.8436986000876746e-15
rhumerus -35.09371388215169 -26.83284654958763 -74.44933463560477
rradius 20.50303998453993
rwrist 7.375194199232572
rhand -18.166687575583563 22.254026385027913
rfingers 7.125019999999999
rthumb 7.970281697007206 -7.65598393803133
82
root 0.009491894787886923 17.723676208895778 28.93654379345422 -3.813442107272201 -0.4430198595377457 -2.700875604967479
lfemur 3.434447172556249 -4.574161833364348 -19.030345628944506
ltibia 48.5019295892449
lfoot 8.51453751816273 -13.743430321678801
ltoes -11.514557688089647
rfemur -22.630533509992997 5.139477150343412 27.099385383138316
rtibia 34.05659509411863
rfoot -7.524527024228214 -4.012612082689945
rtoes 8.354334569396645
lowerback 9.090078619623261 -0.6590515865104196 0.26959235829863526
upperback 0.7235497275209316 -0.7330331271376629 2.4460280101578986
thorax -4.481556612486909 -0.3557740937673239 2.359257906236973
lowerneck -16.00117637581354 -2.2135898707162096 -2.212176339617281
upperneck 20.88094375858033 -2.5070840635060114 0.6605884132916119
head 9.372460953544339 -1.3506251393230646 0.2206873555996673
lclavicle -1.38742804577548e-15 -1.8436985999806637e-15
lhumerus -27.411693598347505 0.3120659467334659 81.93016714609568
lradius 28.85580503615877
lwrist 5.252328203229339
lhand -25.688696642457575 27.174754330880923
lfingers 7.125019999999999
lthumb 0.9615928180134097 57.267714455943796
rclavicle -1.3874280458974244e-15 -1.843698600093374e-15
rhumerus -34.02854302161271 -25.57716150473793 -75.10774263205434
rradius 20.474863999289845
rwrist 7.575587785624425
rhand -18.15051064289051 22.139810503716717
rfingers 7.125019999999999
rthumb 8.000530695539219 -7.717080486257807
83
root -0.07132112297327142 17.836398640769787 29.922779464130336 -4.119555573530431 -0.17987762516082206 -3.7863223634593774
lfemur -1.509296358505364 -3.7184896094161433 -16.745577571500043
ltibia 56.85609085938087
lfoot 11.980611775227374 -15.150103174657243
ltoes 0.3135362458622244
rfemur -19.317845139618683 5.687161087984501 29.02047832864036
rtibia 33.14333802706367
rfoot -7.8120787269929455 -5.060452643769613
rtoes 8.230996909540696
lowerback 9.26997951780028 -0.5401455701717774 0.8993936917633886
upperback 0.7342405546250056 -0.43654988626171143 2.5708064146029757
thorax -4.617523803433657 -0.22679624269539794 2.015570183863791
lowerneck -15.8483450265101 -2.265386503839074 -2.16965600927195
upperneck 20.559579341065536 -2.625857923817226 0.7013443253350243
head 9.213629478777351 -1.381497313997674 0.21237129546694566
lclavicle -1.387428045780857e-15 -1.843698599987358e-15
lhumerus -28.48244849227756 0.4013545219331389 82.19217437989157
lradius 28.505452543860887
lwrist 4.7909938952276
lhand -27.245393026446934 25.365151313730912
lfingers 7.125019999999999
lthumb -0.5624195839004866 55.627470981515074
rclavicle -1.38742804590189e-15 -1.8436986000992058e-15
rhumerus -32.94122104235891 -24.24583263827826 -76.03121739765434
rradius 20.822105699743588
rwrist 7.026314040657901
rhand -18.12309164394126 22.122935391261546
rfingers 7.125019999999999
rthumb 8.021328899461608 -7.706273328069926
